<svg version="1.1" id="Layer_1" xmlns="http://www.w3.org/2000/svg" xmlns:xlink="http://www.w3.org/1999/xlink" x="0px" y="0px"
	 width="100%" viewBox="0 0 1024 1024" enable-background="new 0 0 1024 1024" xml:space="preserve">
<path fill="#000000" opacity="1.000000" stroke="none" 
	d="
M298.629730,459.395935 
	C289.268280,452.151398 280.293304,444.983978 271.308807,437.855743 
	C255.578110,425.375092 239.281250,413.398865 220.651108,405.326874 
	C215.027802,402.890411 209.112534,401.041412 203.203476,399.375732 
	C197.583481,397.791534 195.029663,399.282349 194.659103,404.745300 
	C193.390213,423.451416 187.795929,441.310974 184.335495,459.583008 
	C183.677307,463.058411 183.717941,466.392639 184.070770,469.918549 
	C184.881744,478.022461 184.862183,486.063477 182.700119,494.161194 
	C179.775299,505.115631 181.166992,516.394226 182.624710,527.409851 
	C184.025131,537.992676 184.391846,548.613770 185.127014,559.214966 
	C186.141129,573.838928 187.343979,588.362610 192.379669,602.298523 
	C194.206894,607.355225 193.616943,612.875122 194.800186,618.023499 
	C197.513000,629.827209 203.554001,640.271057 209.515411,650.622620 
	C212.330505,655.510742 215.861572,659.951538 217.494034,665.486145 
	C219.171417,671.172974 222.767319,675.951050 226.637787,681.884033 
	C221.497894,680.967407 218.741180,678.979004 216.825302,676.003662 
	C207.378540,661.332397 197.166519,647.103394 190.102493,631.025452 
	C188.018936,626.283203 186.841263,621.284119 186.623184,616.045044 
	C186.286575,607.958679 182.940445,600.559814 181.076920,592.819885 
	C178.619995,582.615295 177.369568,572.102112 177.153915,561.721924 
	C176.759476,542.734863 172.906509,523.999329 173.636673,504.970825 
	C173.758133,501.805511 173.328384,498.476501 174.670364,495.604095 
	C178.957748,486.427338 175.972168,476.667511 177.252014,467.233459 
	C179.600098,449.925507 183.134308,432.843414 186.022919,415.641785 
	C186.846558,410.736938 187.243729,405.753906 187.677048,400.792816 
	C187.896942,398.275055 188.257690,395.829742 189.386963,393.562378 
	C190.095291,392.140167 191.489517,390.563171 192.861359,391.694824 
	C198.949890,396.717468 206.631393,394.237640 213.421539,396.398346 
	C226.786148,400.651215 240.040344,404.687256 251.579025,413.061096 
	C256.419708,416.574127 261.932831,419.170135 266.720123,422.745544 
	C283.253754,435.093689 299.587585,447.709045 316.036346,460.171387 
	C318.684540,462.177734 321.382294,464.210236 324.317474,465.726776 
	C330.070587,468.699280 334.954895,472.581970 338.577698,477.947876 
	C341.142822,481.747162 344.755157,484.441528 348.098114,487.436035 
	C352.825928,491.670959 357.348602,496.126770 360.719330,501.547089 
	C362.369812,504.201141 364.419861,504.772247 367.036407,503.531555 
	C378.978394,497.869110 392.146729,495.990082 404.469604,491.413727 
	C408.981812,489.737976 414.067322,488.119720 419.462891,489.039246 
	C411.897034,495.442963 402.144714,497.480347 393.211639,502.480713 
	C396.842255,502.930328 399.144226,499.555389 402.682526,500.430725 
	C400.274994,504.522888 396.722534,505.520050 392.796997,505.265656 
	C381.615662,504.540955 371.999359,508.991547 362.525269,514.050964 
	C361.521698,514.586914 360.338928,515.388123 359.349304,515.254028 
	C351.584625,514.202271 346.600494,520.113159 339.015930,522.552002 
	C356.183197,535.714783 375.912872,541.842651 394.141510,551.651123 
	C391.088013,555.001465 387.863403,555.467590 384.597992,554.705261 
	C369.464417,551.172363 354.908661,546.207520 342.716766,536.085388 
	C337.105927,531.427063 335.784546,524.601318 334.532410,517.932495 
	C334.102905,515.645020 336.300323,514.600220 338.159088,513.709839 
	C341.748016,511.990723 345.316528,510.229004 349.338440,508.267975 
	C346.961914,502.501312 342.967316,498.309235 339.327209,493.888397 
	C338.800873,493.249146 338.013794,492.802551 337.568024,492.122253 
	C327.932098,477.417175 311.768188,470.481812 298.629730,459.395935 
z"/>
<path fill="#000000" opacity="1.000000" stroke="none" 
	d="
M617.973145,379.022888 
	C620.707764,380.713226 621.923767,383.506348 622.969910,386.301758 
	C632.173340,410.894897 636.989441,436.378296 639.519653,462.491516 
	C641.149475,479.311615 641.441528,496.173645 639.972595,512.786255 
	C637.543823,540.253479 637.889771,568.596008 624.280457,593.851746 
	C615.758850,609.665955 611.628113,627.377380 602.093567,642.727234 
	C598.782654,648.057434 595.163452,653.104675 590.291687,658.606873 
	C598.104309,658.683411 604.596436,657.627869 611.025940,656.244629 
	C615.732727,655.231995 620.290466,655.877563 624.870056,656.821472 
	C626.454956,657.148193 627.781067,657.995850 627.876221,659.704041 
	C627.989136,661.731506 626.374329,662.487854 624.744873,663.060425 
	C624.435730,663.169067 624.084229,663.249146 623.763489,663.219788 
	C610.956665,662.046021 598.213745,665.513733 585.407776,663.741150 
	C584.058228,663.554321 582.807922,663.470459 581.485168,663.866760 
	C578.155945,664.864258 575.416443,664.078796 574.185791,660.622437 
	C572.915405,657.054382 575.002563,654.897400 577.976074,653.517029 
	C584.028503,650.707520 588.610413,646.120667 592.937500,641.255005 
	C595.011658,638.922668 597.211670,636.539978 595.852844,632.843201 
	C595.290894,631.314270 596.312683,629.930969 597.391968,628.834656 
	C607.225830,618.845703 611.924683,606.666992 614.270508,592.957703 
	C616.338013,580.875183 620.093628,569.084412 623.026001,557.145691 
	C624.380066,551.633057 624.604736,546.005310 624.815430,540.332214 
	C625.455933,523.083191 627.559937,505.900024 627.386169,488.613037 
	C627.311035,481.135223 627.192871,473.624512 626.448486,466.193451 
	C624.744446,449.181885 622.857300,432.181793 620.616272,415.233673 
	C619.420288,406.189636 617.734741,397.216888 617.055969,388.094452 
	C616.841797,385.217255 616.694519,382.465027 617.892822,379.375427 
	C617.999756,378.994110 617.973145,379.022888 617.973145,379.022888 
z"/>
<path fill="#000000" opacity="1.000000" stroke="none" 
	d="
M348.923950,655.783447 
	C354.756897,656.681152 360.049194,658.046021 365.653839,657.310852 
	C370.253571,656.707581 375.620728,660.745178 376.257599,664.635315 
	C377.091919,669.731689 374.876953,672.779175 368.585480,674.168884 
	C365.219666,674.912292 365.437927,676.736145 365.776489,679.295837 
	C367.477325,692.153748 366.495331,704.750366 359.342712,715.876892 
	C354.947571,722.713989 350.203033,723.851318 344.658478,719.503540 
	C338.089081,714.352112 334.708466,707.653992 334.086365,699.924805 
	C333.479187,692.381042 332.719208,684.716248 334.304321,677.066406 
	C335.999084,668.887268 335.002502,668.182861 326.752594,667.197021 
	C314.391205,665.719727 302.052673,663.983582 289.769684,661.961121 
	C286.310974,661.391602 285.423523,662.569519 284.729950,665.466064 
	C281.775452,677.806030 279.820923,690.193726 280.684448,702.982178 
	C281.016663,707.901855 280.695648,712.984131 279.042755,717.780273 
	C278.069244,720.605164 276.512512,723.237305 273.030762,722.560547 
	C269.612762,721.896118 267.803619,719.059631 268.436340,715.844604 
	C270.802399,703.821960 268.814880,691.568298 270.697968,679.538818 
	C271.456055,674.696045 273.317596,670.260254 275.342896,665.883789 
	C277.154724,661.968689 276.687317,659.677307 271.809357,659.184021 
	C269.270355,658.927246 266.489594,658.421082 264.875122,655.237610 
	C267.985016,651.731873 272.414886,652.360718 276.301270,651.816528 
	C279.569458,651.358948 282.861237,651.644653 285.998260,650.020386 
	C289.370728,648.274170 292.023621,651.617004 295.303680,652.011536 
	C306.085602,653.308594 316.910950,652.308472 327.694855,653.484436 
	C334.614868,654.239136 341.566498,654.859863 348.923950,655.783447 
z"/>
<path fill="#000000" opacity="1.000000" stroke="none" 
	d="
M527.571533,695.334229 
	C526.513245,689.166443 525.220642,683.470825 524.575989,677.702759 
	C524.115906,673.586548 522.020996,671.374268 518.332886,670.490356 
	C510.982971,668.729065 503.589325,667.150452 496.256256,665.505981 
	C494.646301,669.345032 495.268890,672.536682 495.275391,675.638428 
	C495.294525,684.794983 494.865448,693.857178 492.185822,702.727417 
	C491.232239,705.883972 489.798676,708.023254 486.523773,708.990906 
	C484.318268,709.642639 482.032990,710.495911 480.196991,711.828735 
	C476.297760,714.659668 473.030762,713.998291 470.128540,710.594543 
	C466.407104,706.229980 463.337372,701.498657 463.736542,695.397095 
	C464.097961,689.872314 463.593109,684.460205 462.258148,679.083191 
	C460.772430,673.099121 463.022095,667.256836 463.549530,661.038696 
	C458.655762,659.861511 453.812378,659.091797 450.316559,655.411438 
	C448.828094,653.844421 446.825043,652.183228 447.906433,649.851379 
	C449.034698,647.418518 451.481415,648.174561 453.663544,648.454041 
	C456.128296,648.769592 458.667084,649.066162 461.119934,648.824829 
	C476.744720,647.287415 491.843842,650.868286 507.092712,653.201416 
	C519.247925,655.061157 530.766235,659.842285 543.112732,660.760681 
	C546.395935,661.004822 548.163696,663.157776 548.593689,666.298645 
	C549.028564,669.475281 547.662842,671.799988 544.722595,673.104370 
	C541.241272,674.648804 537.579102,674.436340 533.913208,674.095215 
	C532.638916,673.976685 531.385010,673.062073 529.519348,674.362610 
	C531.999939,681.793030 533.656006,689.663818 534.729980,697.620361 
	C535.813782,705.649536 537.330688,713.765869 533.854858,721.678833 
	C532.834167,724.002441 532.020447,726.892883 528.778503,725.923706 
	C525.629211,724.982361 525.359802,721.974426 526.042786,719.263916 
	C527.174622,714.772339 529.277527,710.498962 528.700989,705.669678 
	C528.307617,702.375305 527.974426,699.073669 527.571533,695.334229 
z"/>
<path fill="#000000" opacity="1.000000" stroke="none" 
	d="
M618.010620,378.977722 
	C610.512085,386.769836 602.545898,394.020355 593.872681,400.577240 
	C587.513855,405.384460 581.812378,411.043152 577.525024,417.961487 
	C576.137573,420.200287 574.316223,422.239166 572.408875,424.073761 
	C566.654480,429.608765 560.787781,434.976868 556.600708,441.949097 
	C555.284729,444.140320 553.095947,446.121002 550.849731,447.387726 
	C538.573425,454.310608 530.798889,465.236542 524.208496,477.128662 
	C520.834473,483.217072 517.164368,489.131012 514.282043,495.544739 
	C511.426422,501.898865 512.207031,507.048706 516.395447,512.149048 
	C517.019409,512.908813 517.531494,513.760498 518.063293,514.523743 
	C514.769226,518.771484 512.283875,519.068970 508.792725,515.598633 
	C507.623474,514.436340 506.521759,513.099365 505.763947,511.646759 
	C499.601562,499.834869 490.227997,492.131592 478.133728,486.271729 
	C467.874908,481.301117 457.559265,476.074249 447.827728,469.971222 
	C433.923218,461.251190 418.914795,455.954285 402.558777,454.226746 
	C397.416107,453.683533 392.617126,451.566406 388.146149,448.418060 
	C395.986664,460.213196 392.391449,475.422058 400.239105,487.441650 
	C395.320557,485.044556 390.495544,482.551178 387.928192,477.851410 
	C383.781219,470.259979 379.994598,462.391876 380.963562,453.272736 
	C380.980957,453.108887 380.963715,452.939880 380.949738,452.774353 
	C380.171783,443.585602 380.154266,443.715057 389.440399,444.962280 
	C414.909210,448.383179 439.917328,453.080658 462.241333,467.053467 
	C469.110748,471.353088 477.214661,473.596100 483.377106,479.202148 
	C483.622589,479.425476 483.899109,479.797150 484.159363,479.795563 
	C495.696808,479.726166 500.636902,489.618225 508.875916,495.965424 
	C511.105438,489.831879 513.664734,483.834961 516.716919,478.037872 
	C524.277954,463.677002 532.936340,450.497528 547.457703,442.193390 
	C548.589905,441.545898 549.831421,440.676514 550.437439,439.585541 
	C556.844971,428.050171 567.838257,420.483917 575.708740,410.097961 
	C585.344543,397.382355 597.991577,387.262421 610.123840,376.858154 
	C612.184448,375.091064 614.562439,373.215851 617.680786,373.987122 
	C619.109680,375.371948 618.220703,376.870178 618.050049,378.660034 
	C617.973145,379.022888 617.999756,378.994110 618.010620,378.977722 
M384.591003,464.870697 
	C385.528442,467.484344 386.465881,470.097961 387.403351,472.711578 
	C386.664398,466.757935 386.359375,460.701904 382.666656,454.687042 
	C381.775848,458.726410 384.050720,461.244812 384.591003,464.870697 
z"/>
<path fill="#000000" opacity="1.000000" stroke="none" 
	d="
M292.879944,851.994385 
	C287.025757,841.166260 282.861450,830.203552 282.633789,818.067017 
	C282.604187,816.486877 282.191010,815.322754 280.746643,814.305176 
	C270.006561,806.738525 259.030029,799.492249 248.871170,790.870056 
	C244.478653,793.403625 240.086151,795.720703 235.923630,798.395630 
	C231.218079,801.419495 226.055710,802.490356 220.673920,802.160400 
	C209.237869,801.459290 197.702972,801.737183 186.421906,799.307007 
	C181.616470,798.271851 177.324631,796.042480 173.956635,792.365295 
	C172.539200,790.817749 170.860138,789.202942 171.993958,786.792358 
	C173.766373,785.466797 175.222473,787.529480 177.470947,786.790466 
	C176.702560,776.336304 180.920929,767.316650 187.550873,759.323425 
	C193.838303,751.743225 199.494583,743.484558 208.428650,737.674316 
	C210.251053,742.232788 208.426590,745.349548 206.540710,748.089478 
	C203.147720,753.018982 199.425217,757.736145 195.636597,762.375488 
	C189.818558,769.500061 186.301926,777.641785 184.052582,786.483459 
	C183.321823,789.355957 184.004745,790.276428 186.860901,790.781189 
	C199.564224,793.026184 212.368439,792.827698 225.177338,792.725647 
	C227.452667,792.707520 229.408478,791.737610 231.149872,790.436523 
	C241.249847,782.890442 250.922195,782.014404 261.312469,790.552673 
	C268.345917,796.332458 276.604065,800.566345 284.024445,805.968445 
	C287.674255,808.625610 292.421143,809.804016 296.716064,811.541565 
	C309.093109,816.548828 320.213165,823.886292 331.855591,830.263916 
	C337.846680,833.545654 344.367249,835.993286 351.371490,835.671631 
	C357.722137,835.380005 363.393860,838.163452 369.479950,838.967224 
	C370.861084,839.149536 371.939392,840.161560 372.037994,841.670349 
	C372.152008,843.414124 371.062408,844.574524 369.499969,844.922363 
	C367.900024,845.278564 366.117767,845.591614 364.562775,845.250793 
	C352.954834,842.706604 341.344208,840.633179 329.833374,837.083374 
	C316.165222,832.868286 304.964478,824.629150 292.119812,819.411438 
	C291.525360,819.169922 290.884369,819.043030 289.733490,818.708069 
	C291.623993,836.530701 301.196655,851.011108 307.727692,866.798828 
	C300.756470,863.980591 296.783173,858.276428 292.879944,851.994385 
z"/>
<path fill="#000000" opacity="1.000000" stroke="none" 
	d="
M535.336426,910.132935 
	C532.360413,929.835266 530.127441,949.154297 530.183594,968.683350 
	C530.190308,971.001221 531.070618,974.840027 527.962402,974.943237 
	C524.488892,975.058655 525.002808,970.977356 524.986450,968.591797 
	C524.876953,952.594543 526.298584,936.682678 528.141052,920.805115 
	C529.262573,911.140442 531.884705,901.649536 529.003967,891.687927 
	C527.760803,887.389038 527.883667,882.174683 529.031677,877.808899 
	C531.753723,867.456970 529.900879,857.769104 527.000977,847.900879 
	C522.637085,833.050659 521.104248,817.534912 516.696289,802.679932 
	C516.135254,800.789001 515.688843,798.864075 515.013733,796.283691 
	C506.319061,800.775574 496.912201,801.393982 488.261047,804.661499 
	C486.554657,805.306091 484.817169,805.883911 483.062439,806.381104 
	C480.558807,807.090454 478.219238,806.737549 477.219360,804.074463 
	C476.176331,801.296387 478.014893,799.612549 480.317352,798.648743 
	C484.760071,796.789001 489.105377,794.612488 493.917480,793.781677 
	C511.172607,790.802795 522.725586,779.594055 533.124939,766.687378 
	C537.467285,761.298035 540.642639,755.332886 542.461243,748.644958 
	C543.760132,743.868347 547.095886,740.214905 549.534546,736.071289 
	C550.783569,733.949036 552.781311,733.068726 555.056458,734.477783 
	C557.197266,735.803589 557.901123,737.924011 556.468140,740.080444 
	C544.860596,757.548462 537.976379,778.330811 520.401123,791.612305 
	C518.992065,792.677063 518.577332,793.819946 519.352356,795.475220 
	C525.999756,809.671997 527.930969,825.132629 531.271545,840.212952 
	C532.672974,846.539368 534.644348,852.719299 535.589539,859.172852 
	C536.301086,864.030212 536.466492,868.767395 535.414368,873.548889 
	C533.670288,881.475525 533.727356,889.425049 535.455139,897.320007 
	C536.369019,901.496033 536.242737,905.573242 535.336426,910.132935 
z"/>
<path fill="#000000" opacity="1.000000" stroke="none" 
	d="
M199.910065,733.963196 
	C192.717575,725.224609 185.859070,716.646851 178.654205,708.370605 
	C173.653336,702.626160 169.966125,696.199097 167.119461,689.227478 
	C165.963882,686.397400 164.787231,683.095215 168.363647,681.338135 
	C171.676163,679.710754 173.692123,682.460388 175.006912,684.978027 
	C176.432739,687.708069 178.433151,688.287292 181.329590,688.765869 
	C190.492523,690.279846 199.252869,693.632446 208.483810,695.035461 
	C215.697067,696.131836 222.769318,698.128296 230.183380,697.771301 
	C233.024094,697.634399 235.615707,698.599243 236.112625,701.884338 
	C236.573746,704.932739 234.395294,706.261963 231.991516,707.373108 
	C226.735962,709.802551 221.401901,709.409302 215.876846,708.404480 
	C204.575027,706.349060 193.250641,704.492859 182.441330,697.676941 
	C190.217514,711.032837 203.034653,720.655701 203.860458,736.816406 
	C201.314835,737.117493 201.024460,735.288635 199.910065,733.963196 
z"/>
<path fill="#000000" opacity="1.000000" stroke="none" 
	d="
M276.085754,937.085388 
	C273.266174,932.839172 273.132996,928.360229 274.526794,923.958801 
	C276.496948,917.737427 279.291443,911.735962 283.304291,906.646240 
	C293.205872,894.087708 302.467987,881.083008 311.669373,868.018921 
	C314.164856,864.475891 317.399933,861.738831 322.874756,862.522400 
	C310.333954,881.835938 298.140533,900.614441 285.947113,919.393005 
	C298.705109,916.562134 307.120331,904.601562 321.045258,905.603638 
	C321.268219,909.225891 318.986633,909.924683 317.474335,910.876221 
	C307.470184,917.170776 297.466156,923.480530 287.231812,929.386353 
	C283.328278,931.638916 280.639526,935.402466 276.085754,937.085388 
z"/>
<path fill="#000000" opacity="1.000000" stroke="none" 
	d="
M594.711914,697.947754 
	C601.846863,686.033264 609.606201,675.077393 620.320435,666.571594 
	C622.102539,665.156860 622.196228,665.274841 625.536682,665.175415 
	C626.632935,668.110657 624.725464,670.245178 623.301147,672.312012 
	C617.067322,681.358215 611.941528,691.178589 604.576050,699.430664 
	C601.944214,702.379272 602.611572,704.117981 605.599976,706.609009 
	C615.381653,714.762268 623.297974,724.658875 630.543823,735.084229 
	C631.284363,736.149658 631.907532,737.463196 632.072815,738.728455 
	C632.459106,741.684998 633.099670,745.099304 629.552612,746.576294 
	C625.793884,748.141479 624.337646,745.046143 622.699036,742.468628 
	C615.288940,730.812744 606.523865,720.033569 600.196777,707.674805 
	C599.658997,706.624329 598.950134,705.734680 597.693909,705.400146 
	C593.719788,704.341858 593.666748,701.545227 594.711914,697.947754 
z"/>
<path fill="#000000" opacity="1.000000" stroke="none" 
	d="
M452.766296,759.871704 
	C443.646362,770.669922 432.316528,776.367859 418.282776,773.978333 
	C412.601959,773.010986 408.740417,775.266724 405.569122,778.645691 
	C394.458405,790.484192 372.137604,786.722534 366.310120,771.725037 
	C365.417389,769.427612 365.005768,766.845459 367.818542,765.727234 
	C370.595612,764.623291 370.768555,767.114441 371.551361,769.012573 
	C374.636078,776.492371 384.989929,779.954102 392.536316,776.801697 
	C395.937988,775.380676 398.853882,773.705383 401.668732,771.332581 
	C407.075775,766.774841 413.728760,767.278931 420.225677,767.902771 
	C428.269012,768.675171 435.094330,765.596619 441.268250,761.023193 
	C444.984222,758.270447 448.314697,755.911377 452.766296,759.871704 
z"/>
<path fill="#000000" opacity="1.000000" stroke="none" 
	d="
M336.664307,905.622803 
	C334.369263,920.408630 336.052643,934.953674 334.419891,949.337708 
	C334.094635,952.203125 335.074921,954.932556 335.825043,957.648438 
	C336.566437,960.332764 335.817657,962.237427 333.193451,963.250793 
	C330.587860,964.256836 328.249786,963.938782 326.610535,961.454102 
	C325.198792,959.314331 324.648712,956.902405 324.686707,954.343872 
	C324.955841,936.236938 326.440704,918.242737 329.772186,900.427429 
	C330.542847,896.306519 332.419830,892.561890 334.198975,888.811340 
	C334.894623,887.344910 335.748138,885.504944 337.817810,886.120850 
	C339.628204,886.659607 339.437164,888.563171 339.236206,889.973938 
	C338.511749,895.059998 337.606262,900.120239 336.664307,905.622803 
z"/>
<path fill="#000000" opacity="1.000000" stroke="none" 
	d="
M584.533813,752.574768 
	C593.215698,755.101074 601.625244,756.832886 610.350891,756.921997 
	C614.045593,756.959839 617.785156,755.980042 621.461243,758.371704 
	C623.434814,759.655762 625.664246,757.206604 627.642517,756.008667 
	C630.056946,754.546692 632.928040,751.111816 635.406616,754.174927 
	C638.197205,757.623779 633.788635,759.385498 631.679993,760.927429 
	C622.954773,767.307129 613.027832,768.890198 602.775574,766.070435 
	C593.137573,763.419617 583.940430,759.373535 575.571350,753.803650 
	C571.645630,751.190857 567.757263,748.872864 563.006531,748.076233 
	C560.658081,747.682373 558.152344,746.942993 556.773376,742.959656 
	C561.266113,743.934387 565.032532,741.839050 568.875183,744.011963 
	C573.942200,746.877258 579.071960,749.631531 584.533813,752.574768 
z"/>
<path fill="#000000" opacity="1.000000" stroke="none" 
	d="
M259.119812,765.168518 
	C255.053589,764.515808 251.953766,763.102966 251.133942,759.041382 
	C250.283783,754.829529 253.165359,752.774902 256.097290,750.685242 
	C259.006897,748.611511 262.342377,747.020874 264.778656,743.811768 
	C259.167633,741.924133 253.042664,746.228943 247.938095,741.872192 
	C249.526901,739.056519 252.044525,739.135254 254.231949,738.714417 
	C257.970490,737.995178 261.737793,737.390991 265.515869,736.922974 
	C268.411102,736.564392 271.307526,736.818604 272.986847,739.672302 
	C274.708649,742.598145 273.862732,745.399475 272.133118,748.084473 
	C269.943146,751.484009 266.393524,753.391907 263.221497,756.101074 
	C265.467834,755.848511 267.380676,755.530090 269.303406,755.450562 
	C270.802979,755.388367 272.454224,755.538086 272.973755,757.326782 
	C273.544342,759.291016 272.275696,760.559570 270.740814,761.301453 
	C267.166962,763.028931 263.599182,764.853210 259.119812,765.168518 
z"/>
<path fill="#000000" opacity="1.000000" stroke="none" 
	d="
M530.782532,766.989746 
	C525.989197,768.414734 521.550110,769.767395 517.033813,770.773254 
	C513.392944,771.584045 511.319702,768.971802 512.716736,765.468628 
	C514.026123,762.185242 516.257935,759.508789 518.732117,757.002686 
	C520.320068,755.394226 522.226440,753.793701 521.126892,751.041870 
	C518.967163,749.697571 516.865295,751.240417 514.777222,751.011047 
	C512.853943,750.799805 510.790619,750.937195 509.489441,749.050110 
	C512.300171,745.462952 522.369019,743.277771 525.739258,745.452087 
	C529.008667,747.561462 529.760071,754.923279 527.177429,759.610840 
	C526.795898,760.303284 526.378235,760.975769 526.047485,761.538147 
	C527.435181,763.842346 533.249695,761.385864 530.782532,766.989746 
z"/>
<path fill="#000000" opacity="1.000000" stroke="none" 
	d="
M390.691162,714.059631 
	C393.319824,714.786377 395.624512,715.237305 397.750122,716.119690 
	C399.808105,716.973877 401.433533,718.458069 401.213531,721.047180 
	C401.002045,723.536316 399.323669,725.052429 397.224731,725.677551 
	C391.744598,727.309814 386.302368,726.097534 381.188995,724.206360 
	C378.008240,723.029907 378.010620,719.032471 381.038239,716.984619 
	C383.763397,715.141357 386.721588,713.477295 390.691162,714.059631 
z"/>
</svg>